<svg xmlns="http://www.w3.org/2000/svg" viewBox="0 0 1024 1024">
  <title>Text Detection OCR</title>
  <rect width="1024" height="1024" fill="transparent"/>
  <path
    fill="#6366F1"
    fill-rule="evenodd"
    d="M213 85h598c76 0 128 52 128 128v598c0 76-52 128-128 128H213c-76 0-128-52-128-128V213C85 137 137 85 213 85Zm0 86c-29 0-42 13-42 42v598c0 29 13 42 42 42h256V726H298c-24 0-43-19-43-43s19-43 43-43h256c24 0 43 19 43 43s-19 43-43 43v127h257c29 0 42-13 42-42V213c0-29-13-42-42-42H555v127h171c24 0 43 19 43 43s-19 43-43 43H298c-24 0-43-19-43-43s19-43 43-43h171V171H213Zm85 299h428c24 0 43 19 43 43s-19 43-43 43H298c-24 0-43-19-43-43s19-43 43-43Z"
  />
</svg>
